<?xml version="1.0" encoding="UTF-8" standalone="no"?>
<!DOCTYPE svg PUBLIC "-//W3C//DTD SVG 1.1//EN"
 "http://www.w3.org/Graphics/SVG/1.1/DTD/svg11.dtd">
<!-- Generated by graphviz version 12.2.1 (20241206.2353)
 -->
<!-- Pages: 1 -->
<svg width="263pt" height="188pt"
 viewBox="0.00 0.00 263.25 188.00" xmlns="http://www.w3.org/2000/svg" xmlns:xlink="http://www.w3.org/1999/xlink">
<g id="graph0" class="graph" transform="scale(1 1) rotate(0) translate(4 184)">
<polygon fill="white" stroke="none" points="-4,4 -4,-184 259.25,-184 259.25,4 -4,4"/>
<!-- 8870107582381670041 -->
<g id="node1" class="node">
<title>8870107582381670041</title>
<polygon fill="none" stroke="black" points="218.88,-180 36.38,-180 36.38,-144 218.88,-144 218.88,-180"/>
<text text-anchor="middle" x="127.62" y="-154.62" font-family="Helvetica,sans-Serif" font-size="20.00">Unique(Projection)</text>
</g>
<!-- 2833714747485172075 -->
<g id="node2" class="node">
<title>2833714747485172075</title>
<polygon fill="none" stroke="black" points="255.25,-108 0,-108 0,-72 255.25,-72 255.25,-108"/>
<text text-anchor="middle" x="127.62" y="-82.62" font-family="Helvetica,sans-Serif" font-size="20.00">Projection(FromPandas, b)</text>
</g>
<!-- 2833714747485172075&#45;&gt;8870107582381670041 -->
<g id="edge1" class="edge">
<title>2833714747485172075&#45;&gt;8870107582381670041</title>
<path fill="none" stroke="black" d="M127.62,-108.3C127.62,-115.59 127.62,-124.27 127.62,-132.46"/>
<polygon fill="black" stroke="black" points="124.13,-132.38 127.63,-142.38 131.13,-132.38 124.13,-132.38"/>
</g>
<!-- 8901237719638903019 -->
<g id="node3" class="node">
<title>8901237719638903019</title>
<polygon fill="none" stroke="black" points="193,-36 62.25,-36 62.25,0 193,0 193,-36"/>
<text text-anchor="middle" x="127.62" y="-10.62" font-family="Helvetica,sans-Serif" font-size="20.00">FromPandas</text>
</g>
<!-- 8901237719638903019&#45;&gt;2833714747485172075 -->
<g id="edge2" class="edge">
<title>8901237719638903019&#45;&gt;2833714747485172075</title>
<path fill="none" stroke="black" d="M127.62,-36.3C127.62,-43.59 127.62,-52.27 127.62,-60.46"/>
<polygon fill="black" stroke="black" points="124.13,-60.38 127.63,-70.38 131.13,-60.38 124.13,-60.38"/>
</g>
</g>
</svg>
